<?xml version="1.0" encoding="UTF-8"?>
<svg xmlns="http://www.w3.org/2000/svg" xmlns:xlink="http://www.w3.org/1999/xlink" width="22px" height="30px" viewBox="0 0 22 20" version="1.1">
<g id="surface1">
<path style=" stroke:none;fill-rule:nonzero;fill:rgb(0%,0%,0%);fill-opacity:1;" d="M 12.101562 0.703125 C 11.902344 0.273438 11.472656 0 11.003906 0 C 10.535156 0 10.109375 0.273438 9.90625 0.703125 L 7.449219 5.871094 L 1.960938 6.699219 C 1.503906 6.769531 1.125 7.097656 0.980469 7.546875 C 0.839844 7.996094 0.953125 8.492188 1.28125 8.824219 L 5.265625 12.851562 L 4.324219 18.542969 C 4.246094 19.011719 4.4375 19.488281 4.816406 19.765625 C 5.195312 20.042969 5.695312 20.078125 6.109375 19.855469 L 11.007812 17.179688 L 15.90625 19.855469 C 16.320312 20.078125 16.820312 20.046875 17.199219 19.765625 C 17.578125 19.484375 17.765625 19.011719 17.691406 18.542969 L 16.75 12.851562 L 20.726562 8.824219 C 21.054688 8.492188 21.175781 7.996094 21.03125 7.546875 C 20.882812 7.097656 20.507812 6.769531 20.046875 6.699219 L 14.558594 5.871094 Z M 12.101562 0.703125 "/>
</g>
</svg>
